<svg xmlns="http://www.w3.org/2000/svg" xmlns:xlink="http://www.w3.org/1999/xlink" width="500" zoomAndPan="magnify" viewBox="0 0 375 374.999991" height="500" preserveAspectRatio="xMidYMid meet" version="1.0"><defs><g/></defs><rect x="-37.5" width="450" fill="#ffffff" y="-37.499999" height="449.999989" fill-opacity="1"/><rect x="-37.5" width="450" fill="#f1efe7" y="-37.499999" height="449.999989" fill-opacity="1"/><g fill="#ff00ff" fill-opacity="1"><g transform="translate(119.959976, 176.71884)"><g><path d="M 0.46875 -38.421875 L 0.46875 -48.015625 L 34.21875 -48.015625 L 34.21875 -38.421875 L 22.8125 -38.421875 L 22.8125 0 L 11.875 0 L 11.875 -38.421875 Z M 0.46875 -38.421875 "/></g></g></g><g fill="#ff00ff" fill-opacity="1"><g transform="translate(152.264557, 176.71884)"><g><path d="M 13.21875 -29.859375 L 13.21875 -15.65625 C 13.21875 -12.707031 13.660156 -10.613281 14.546875 -9.375 C 15.441406 -8.132812 16.957031 -7.515625 19.09375 -7.515625 C 21.226562 -7.515625 22.738281 -8.132812 23.625 -9.375 C 24.519531 -10.613281 24.96875 -12.707031 24.96875 -15.65625 L 24.96875 -29.859375 L 35.265625 -29.859375 L 35.265625 -13.15625 C 35.265625 -8.1875 33.972656 -4.601562 31.390625 -2.40625 C 28.816406 -0.21875 24.71875 0.875 19.09375 0.875 C 13.46875 0.875 9.363281 -0.21875 6.78125 -2.40625 C 4.195312 -4.601562 2.90625 -8.1875 2.90625 -13.15625 L 2.90625 -29.859375 Z M 13.21875 -29.859375 "/></g></g></g><g fill="#ff00ff" fill-opacity="1"><g transform="translate(188.061554, 176.71884)"><g><path d="M 3.5 0 L 3.5 -29.859375 L 13.796875 -29.859375 L 13.796875 -26.71875 L 13.90625 -26.71875 C 16.582031 -29.394531 19.4375 -30.734375 22.46875 -30.734375 C 23.9375 -30.734375 25.398438 -30.535156 26.859375 -30.140625 C 28.316406 -29.753906 29.710938 -29.15625 31.046875 -28.34375 C 32.390625 -27.53125 33.476562 -26.375 34.3125 -24.875 C 35.144531 -23.382812 35.5625 -21.648438 35.5625 -19.671875 L 35.5625 0 L 25.265625 0 L 25.265625 -16.875 C 25.265625 -18.425781 24.769531 -19.785156 23.78125 -20.953125 C 22.789062 -22.117188 21.5 -22.703125 19.90625 -22.703125 C 18.351562 -22.703125 16.945312 -22.097656 15.6875 -20.890625 C 14.425781 -19.691406 13.796875 -18.351562 13.796875 -16.875 L 13.796875 0 Z M 3.5 0 "/></g></g></g><g fill="#ff00ff" fill-opacity="1"><g transform="translate(224.149591, 176.71884)"><g><path d="M 33.703125 -13.5 L 12.046875 -13.5 C 12.046875 -11.40625 12.722656 -9.851562 14.078125 -8.84375 C 15.441406 -7.832031 16.921875 -7.328125 18.515625 -7.328125 C 20.179688 -7.328125 21.5 -7.550781 22.46875 -8 C 23.4375 -8.445312 24.539062 -9.332031 25.78125 -10.65625 L 33.234375 -6.921875 C 30.128906 -1.722656 24.96875 0.875 17.75 0.875 C 13.25 0.875 9.390625 -0.664062 6.171875 -3.75 C 2.953125 -6.832031 1.34375 -10.546875 1.34375 -14.890625 C 1.34375 -19.242188 2.953125 -22.972656 6.171875 -26.078125 C 9.390625 -29.179688 13.25 -30.734375 17.75 -30.734375 C 22.488281 -30.734375 26.34375 -29.363281 29.3125 -26.625 C 32.28125 -23.894531 33.765625 -19.988281 33.765625 -14.90625 C 33.765625 -14.207031 33.742188 -13.738281 33.703125 -13.5 Z M 12.34375 -19.203125 L 23.6875 -19.203125 C 23.457031 -20.753906 22.847656 -21.945312 21.859375 -22.78125 C 20.867188 -23.613281 19.597656 -24.03125 18.046875 -24.03125 C 16.335938 -24.03125 14.976562 -23.582031 13.96875 -22.6875 C 12.957031 -21.800781 12.414062 -20.640625 12.34375 -19.203125 Z M 12.34375 -19.203125 "/></g></g></g><g fill="#00ffff" fill-opacity="1"><g transform="translate(115.737733, 174.281137)"><g><path d="M 0.46875 -38.421875 L 0.46875 -48.015625 L 34.21875 -48.015625 L 34.21875 -38.421875 L 22.8125 -38.421875 L 22.8125 0 L 11.875 0 L 11.875 -38.421875 Z M 0.46875 -38.421875 "/></g></g></g><g fill="#00ffff" fill-opacity="1"><g transform="translate(148.042314, 174.281137)"><g><path d="M 13.21875 -29.859375 L 13.21875 -15.65625 C 13.21875 -12.707031 13.660156 -10.613281 14.546875 -9.375 C 15.441406 -8.132812 16.957031 -7.515625 19.09375 -7.515625 C 21.226562 -7.515625 22.738281 -8.132812 23.625 -9.375 C 24.519531 -10.613281 24.96875 -12.707031 24.96875 -15.65625 L 24.96875 -29.859375 L 35.265625 -29.859375 L 35.265625 -13.15625 C 35.265625 -8.1875 33.972656 -4.601562 31.390625 -2.40625 C 28.816406 -0.21875 24.71875 0.875 19.09375 0.875 C 13.46875 0.875 9.363281 -0.21875 6.78125 -2.40625 C 4.195312 -4.601562 2.90625 -8.1875 2.90625 -13.15625 L 2.90625 -29.859375 Z M 13.21875 -29.859375 "/></g></g></g><g fill="#00ffff" fill-opacity="1"><g transform="translate(183.839311, 174.281137)"><g><path d="M 3.5 0 L 3.5 -29.859375 L 13.796875 -29.859375 L 13.796875 -26.71875 L 13.90625 -26.71875 C 16.582031 -29.394531 19.4375 -30.734375 22.46875 -30.734375 C 23.9375 -30.734375 25.398438 -30.535156 26.859375 -30.140625 C 28.316406 -29.753906 29.710938 -29.15625 31.046875 -28.34375 C 32.390625 -27.53125 33.476562 -26.375 34.3125 -24.875 C 35.144531 -23.382812 35.5625 -21.648438 35.5625 -19.671875 L 35.5625 0 L 25.265625 0 L 25.265625 -16.875 C 25.265625 -18.425781 24.769531 -19.785156 23.78125 -20.953125 C 22.789062 -22.117188 21.5 -22.703125 19.90625 -22.703125 C 18.351562 -22.703125 16.945312 -22.097656 15.6875 -20.890625 C 14.425781 -19.691406 13.796875 -18.351562 13.796875 -16.875 L 13.796875 0 Z M 3.5 0 "/></g></g></g><g fill="#00ffff" fill-opacity="1"><g transform="translate(219.927348, 174.281137)"><g><path d="M 33.703125 -13.5 L 12.046875 -13.5 C 12.046875 -11.40625 12.722656 -9.851562 14.078125 -8.84375 C 15.441406 -7.832031 16.921875 -7.328125 18.515625 -7.328125 C 20.179688 -7.328125 21.5 -7.550781 22.46875 -8 C 23.4375 -8.445312 24.539062 -9.332031 25.78125 -10.65625 L 33.234375 -6.921875 C 30.128906 -1.722656 24.96875 0.875 17.75 0.875 C 13.25 0.875 9.390625 -0.664062 6.171875 -3.75 C 2.953125 -6.832031 1.34375 -10.546875 1.34375 -14.890625 C 1.34375 -19.242188 2.953125 -22.972656 6.171875 -26.078125 C 9.390625 -29.179688 13.25 -30.734375 17.75 -30.734375 C 22.488281 -30.734375 26.34375 -29.363281 29.3125 -26.625 C 32.28125 -23.894531 33.765625 -19.988281 33.765625 -14.90625 C 33.765625 -14.207031 33.742188 -13.738281 33.703125 -13.5 Z M 12.34375 -19.203125 L 23.6875 -19.203125 C 23.457031 -20.753906 22.847656 -21.945312 21.859375 -22.78125 C 20.867188 -23.613281 19.597656 -24.03125 18.046875 -24.03125 C 16.335938 -24.03125 14.976562 -23.582031 13.96875 -22.6875 C 12.957031 -21.800781 12.414062 -20.640625 12.34375 -19.203125 Z M 12.34375 -19.203125 "/></g></g></g><g fill="#5200ff" fill-opacity="1"><g transform="translate(117.848855, 175.499988)"><g><path d="M 0.46875 -38.421875 L 0.46875 -48.015625 L 34.21875 -48.015625 L 34.21875 -38.421875 L 22.8125 -38.421875 L 22.8125 0 L 11.875 0 L 11.875 -38.421875 Z M 0.46875 -38.421875 "/></g></g></g><g fill="#5200ff" fill-opacity="1"><g transform="translate(150.153435, 175.499988)"><g><path d="M 13.21875 -29.859375 L 13.21875 -15.65625 C 13.21875 -12.707031 13.660156 -10.613281 14.546875 -9.375 C 15.441406 -8.132812 16.957031 -7.515625 19.09375 -7.515625 C 21.226562 -7.515625 22.738281 -8.132812 23.625 -9.375 C 24.519531 -10.613281 24.96875 -12.707031 24.96875 -15.65625 L 24.96875 -29.859375 L 35.265625 -29.859375 L 35.265625 -13.15625 C 35.265625 -8.1875 33.972656 -4.601562 31.390625 -2.40625 C 28.816406 -0.21875 24.71875 0.875 19.09375 0.875 C 13.46875 0.875 9.363281 -0.21875 6.78125 -2.40625 C 4.195312 -4.601562 2.90625 -8.1875 2.90625 -13.15625 L 2.90625 -29.859375 Z M 13.21875 -29.859375 "/></g></g></g><g fill="#5200ff" fill-opacity="1"><g transform="translate(185.950432, 175.499988)"><g><path d="M 3.5 0 L 3.5 -29.859375 L 13.796875 -29.859375 L 13.796875 -26.71875 L 13.90625 -26.71875 C 16.582031 -29.394531 19.4375 -30.734375 22.46875 -30.734375 C 23.9375 -30.734375 25.398438 -30.535156 26.859375 -30.140625 C 28.316406 -29.753906 29.710938 -29.15625 31.046875 -28.34375 C 32.390625 -27.53125 33.476562 -26.375 34.3125 -24.875 C 35.144531 -23.382812 35.5625 -21.648438 35.5625 -19.671875 L 35.5625 0 L 25.265625 0 L 25.265625 -16.875 C 25.265625 -18.425781 24.769531 -19.785156 23.78125 -20.953125 C 22.789062 -22.117188 21.5 -22.703125 19.90625 -22.703125 C 18.351562 -22.703125 16.945312 -22.097656 15.6875 -20.890625 C 14.425781 -19.691406 13.796875 -18.351562 13.796875 -16.875 L 13.796875 0 Z M 3.5 0 "/></g></g></g><g fill="#5200ff" fill-opacity="1"><g transform="translate(222.038469, 175.499988)"><g><path d="M 33.703125 -13.5 L 12.046875 -13.5 C 12.046875 -11.40625 12.722656 -9.851562 14.078125 -8.84375 C 15.441406 -7.832031 16.921875 -7.328125 18.515625 -7.328125 C 20.179688 -7.328125 21.5 -7.550781 22.46875 -8 C 23.4375 -8.445312 24.539062 -9.332031 25.78125 -10.65625 L 33.234375 -6.921875 C 30.128906 -1.722656 24.96875 0.875 17.75 0.875 C 13.25 0.875 9.390625 -0.664062 6.171875 -3.75 C 2.953125 -6.832031 1.34375 -10.546875 1.34375 -14.890625 C 1.34375 -19.242188 2.953125 -22.972656 6.171875 -26.078125 C 9.390625 -29.179688 13.25 -30.734375 17.75 -30.734375 C 22.488281 -30.734375 26.34375 -29.363281 29.3125 -26.625 C 32.28125 -23.894531 33.765625 -19.988281 33.765625 -14.90625 C 33.765625 -14.207031 33.742188 -13.738281 33.703125 -13.5 Z M 12.34375 -19.203125 L 23.6875 -19.203125 C 23.457031 -20.753906 22.847656 -21.945312 21.859375 -22.78125 C 20.867188 -23.613281 19.597656 -24.03125 18.046875 -24.03125 C 16.335938 -24.03125 14.976562 -23.582031 13.96875 -22.6875 C 12.957031 -21.800781 12.414062 -20.640625 12.34375 -19.203125 Z M 12.34375 -19.203125 "/></g></g></g><g fill="#ff00ff" fill-opacity="1"><g transform="translate(63.932636, 230.718837)"><g><path d="M 40.328125 0 L 32.65625 -26.953125 L 24.96875 0 L 12.8125 0 L -0.875 -48.015625 L 11.296875 -48.015625 L 19.5 -15.078125 L 19.796875 -15.078125 L 28.515625 -48.015625 L 36.78125 -48.015625 L 45.515625 -15.078125 L 45.8125 -15.078125 L 54.015625 -48.015625 L 66.125 -48.015625 L 52.4375 0 Z M 40.328125 0 "/></g></g></g><g fill="#ff00ff" fill-opacity="1"><g transform="translate(126.795881, 230.718837)"><g><path d="M 33.703125 -13.5 L 12.046875 -13.5 C 12.046875 -11.40625 12.722656 -9.851562 14.078125 -8.84375 C 15.441406 -7.832031 16.921875 -7.328125 18.515625 -7.328125 C 20.179688 -7.328125 21.5 -7.550781 22.46875 -8 C 23.4375 -8.445312 24.539062 -9.332031 25.78125 -10.65625 L 33.234375 -6.921875 C 30.128906 -1.722656 24.96875 0.875 17.75 0.875 C 13.25 0.875 9.390625 -0.664062 6.171875 -3.75 C 2.953125 -6.832031 1.34375 -10.546875 1.34375 -14.890625 C 1.34375 -19.242188 2.953125 -22.972656 6.171875 -26.078125 C 9.390625 -29.179688 13.25 -30.734375 17.75 -30.734375 C 22.488281 -30.734375 26.34375 -29.363281 29.3125 -26.625 C 32.28125 -23.894531 33.765625 -19.988281 33.765625 -14.90625 C 33.765625 -14.207031 33.742188 -13.738281 33.703125 -13.5 Z M 12.34375 -19.203125 L 23.6875 -19.203125 C 23.457031 -20.753906 22.847656 -21.945312 21.859375 -22.78125 C 20.867188 -23.613281 19.597656 -24.03125 18.046875 -24.03125 C 16.335938 -24.03125 14.976562 -23.582031 13.96875 -22.6875 C 12.957031 -21.800781 12.414062 -20.640625 12.34375 -19.203125 Z M 12.34375 -19.203125 "/></g></g></g><g fill="#ff00ff" fill-opacity="1"><g transform="translate(159.507905, 230.718837)"><g><path d="M 5.53125 -3.6875 C 2.738281 -6.738281 1.34375 -10.472656 1.34375 -14.890625 C 1.34375 -19.316406 2.738281 -23.0625 5.53125 -26.125 C 8.320312 -29.195312 11.875 -30.734375 16.1875 -30.734375 C 20.144531 -30.734375 23.398438 -29.488281 25.953125 -27 L 25.953125 -29.859375 L 36.265625 -29.859375 L 36.265625 0 L 26.078125 0 L 26.078125 -3.375 L 25.953125 -3.375 C 23.398438 -0.539062 20.144531 0.875 16.1875 0.875 C 11.875 0.875 8.320312 -0.644531 5.53125 -3.6875 Z M 14.28125 -19.953125 C 12.945312 -18.640625 12.28125 -16.953125 12.28125 -14.890625 C 12.28125 -12.835938 12.921875 -11.160156 14.203125 -9.859375 C 15.484375 -8.566406 17.171875 -7.921875 19.265625 -7.921875 C 21.285156 -7.921875 22.941406 -8.578125 24.234375 -9.890625 C 25.535156 -11.210938 26.1875 -12.882812 26.1875 -14.90625 C 26.1875 -16.957031 25.515625 -18.640625 24.171875 -19.953125 C 22.835938 -21.273438 21.203125 -21.9375 19.265625 -21.9375 C 17.285156 -21.9375 15.625 -21.273438 14.28125 -19.953125 Z M 14.28125 -19.953125 "/></g></g></g><g fill="#ff00ff" fill-opacity="1"><g transform="translate(196.87649, 230.718837)"><g><path d="M 5.234375 -29.859375 L 5.234375 -40.96875 L 15.546875 -40.96875 L 15.546875 -29.859375 L 21.828125 -29.859375 L 21.828125 -22 L 15.546875 -22 L 15.546875 -12.515625 C 15.546875 -9.753906 16.320312 -8.375 17.875 -8.375 C 18.257812 -8.375 18.664062 -8.453125 19.09375 -8.609375 C 19.519531 -8.765625 19.847656 -8.921875 20.078125 -9.078125 L 20.421875 -9.3125 L 22.984375 -0.984375 C 20.773438 0.253906 18.253906 0.875 15.421875 0.875 C 13.484375 0.875 11.816406 0.535156 10.421875 -0.140625 C 9.023438 -0.828125 7.96875 -1.738281 7.25 -2.875 C 6.53125 -4.019531 6.015625 -5.222656 5.703125 -6.484375 C 5.390625 -7.742188 5.234375 -9.09375 5.234375 -10.53125 L 5.234375 -22 L 0.9375 -22 L 0.9375 -29.859375 Z M 5.234375 -29.859375 "/></g></g></g><g fill="#ff00ff" fill-opacity="1"><g transform="translate(217.481461, 230.718837)"><g><path d="M 3.5 0 L 3.5 -50.0625 L 13.796875 -50.0625 L 13.796875 -26.71875 L 13.90625 -26.71875 C 16.582031 -29.394531 19.4375 -30.734375 22.46875 -30.734375 C 23.9375 -30.734375 25.398438 -30.535156 26.859375 -30.140625 C 28.316406 -29.753906 29.710938 -29.15625 31.046875 -28.34375 C 32.390625 -27.53125 33.476562 -26.375 34.3125 -24.875 C 35.144531 -23.382812 35.5625 -21.648438 35.5625 -19.671875 L 35.5625 0 L 25.265625 0 L 25.265625 -16.875 C 25.265625 -18.425781 24.769531 -19.785156 23.78125 -20.953125 C 22.789062 -22.117188 21.5 -22.703125 19.90625 -22.703125 C 18.351562 -22.703125 16.945312 -22.097656 15.6875 -20.890625 C 14.425781 -19.691406 13.796875 -18.351562 13.796875 -16.875 L 13.796875 0 Z M 3.5 0 "/></g></g></g><g fill="#ff00ff" fill-opacity="1"><g transform="translate(253.569487, 230.718837)"><g><path d="M 33.703125 -13.5 L 12.046875 -13.5 C 12.046875 -11.40625 12.722656 -9.851562 14.078125 -8.84375 C 15.441406 -7.832031 16.921875 -7.328125 18.515625 -7.328125 C 20.179688 -7.328125 21.5 -7.550781 22.46875 -8 C 23.4375 -8.445312 24.539062 -9.332031 25.78125 -10.65625 L 33.234375 -6.921875 C 30.128906 -1.722656 24.96875 0.875 17.75 0.875 C 13.25 0.875 9.390625 -0.664062 6.171875 -3.75 C 2.953125 -6.832031 1.34375 -10.546875 1.34375 -14.890625 C 1.34375 -19.242188 2.953125 -22.972656 6.171875 -26.078125 C 9.390625 -29.179688 13.25 -30.734375 17.75 -30.734375 C 22.488281 -30.734375 26.34375 -29.363281 29.3125 -26.625 C 32.28125 -23.894531 33.765625 -19.988281 33.765625 -14.90625 C 33.765625 -14.207031 33.742188 -13.738281 33.703125 -13.5 Z M 12.34375 -19.203125 L 23.6875 -19.203125 C 23.457031 -20.753906 22.847656 -21.945312 21.859375 -22.78125 C 20.867188 -23.613281 19.597656 -24.03125 18.046875 -24.03125 C 16.335938 -24.03125 14.976562 -23.582031 13.96875 -22.6875 C 12.957031 -21.800781 12.414062 -20.640625 12.34375 -19.203125 Z M 12.34375 -19.203125 "/></g></g></g><g fill="#ff00ff" fill-opacity="1"><g transform="translate(286.281506, 230.718837)"><g><path d="M 3.5 0 L 3.5 -29.859375 L 13.796875 -29.859375 L 13.796875 -25.546875 L 13.90625 -25.546875 C 13.988281 -25.703125 14.113281 -25.894531 14.28125 -26.125 C 14.457031 -26.363281 14.835938 -26.773438 15.421875 -27.359375 C 16.003906 -27.941406 16.625 -28.460938 17.28125 -28.921875 C 17.945312 -29.390625 18.800781 -29.804688 19.84375 -30.171875 C 20.894531 -30.546875 21.960938 -30.734375 23.046875 -30.734375 C 24.171875 -30.734375 25.273438 -30.578125 26.359375 -30.265625 C 27.453125 -29.953125 28.25 -29.640625 28.75 -29.328125 L 29.5625 -28.875 L 25.265625 -20.140625 C 23.984375 -21.222656 22.195312 -21.765625 19.90625 -21.765625 C 18.664062 -21.765625 17.597656 -21.492188 16.703125 -20.953125 C 15.804688 -20.410156 15.175781 -19.75 14.8125 -18.96875 C 14.445312 -18.195312 14.1875 -17.539062 14.03125 -17 C 13.875 -16.457031 13.796875 -16.03125 13.796875 -15.71875 L 13.796875 0 Z M 3.5 0 "/></g></g></g><g fill="#00ffff" fill-opacity="1"><g transform="translate(59.710393, 228.281133)"><g><path d="M 40.328125 0 L 32.65625 -26.953125 L 24.96875 0 L 12.8125 0 L -0.875 -48.015625 L 11.296875 -48.015625 L 19.5 -15.078125 L 19.796875 -15.078125 L 28.515625 -48.015625 L 36.78125 -48.015625 L 45.515625 -15.078125 L 45.8125 -15.078125 L 54.015625 -48.015625 L 66.125 -48.015625 L 52.4375 0 Z M 40.328125 0 "/></g></g></g><g fill="#00ffff" fill-opacity="1"><g transform="translate(122.573638, 228.281133)"><g><path d="M 33.703125 -13.5 L 12.046875 -13.5 C 12.046875 -11.40625 12.722656 -9.851562 14.078125 -8.84375 C 15.441406 -7.832031 16.921875 -7.328125 18.515625 -7.328125 C 20.179688 -7.328125 21.5 -7.550781 22.46875 -8 C 23.4375 -8.445312 24.539062 -9.332031 25.78125 -10.65625 L 33.234375 -6.921875 C 30.128906 -1.722656 24.96875 0.875 17.75 0.875 C 13.25 0.875 9.390625 -0.664062 6.171875 -3.75 C 2.953125 -6.832031 1.34375 -10.546875 1.34375 -14.890625 C 1.34375 -19.242188 2.953125 -22.972656 6.171875 -26.078125 C 9.390625 -29.179688 13.25 -30.734375 17.75 -30.734375 C 22.488281 -30.734375 26.34375 -29.363281 29.3125 -26.625 C 32.28125 -23.894531 33.765625 -19.988281 33.765625 -14.90625 C 33.765625 -14.207031 33.742188 -13.738281 33.703125 -13.5 Z M 12.34375 -19.203125 L 23.6875 -19.203125 C 23.457031 -20.753906 22.847656 -21.945312 21.859375 -22.78125 C 20.867188 -23.613281 19.597656 -24.03125 18.046875 -24.03125 C 16.335938 -24.03125 14.976562 -23.582031 13.96875 -22.6875 C 12.957031 -21.800781 12.414062 -20.640625 12.34375 -19.203125 Z M 12.34375 -19.203125 "/></g></g></g><g fill="#00ffff" fill-opacity="1"><g transform="translate(155.285662, 228.281133)"><g><path d="M 5.53125 -3.6875 C 2.738281 -6.738281 1.34375 -10.472656 1.34375 -14.890625 C 1.34375 -19.316406 2.738281 -23.0625 5.53125 -26.125 C 8.320312 -29.195312 11.875 -30.734375 16.1875 -30.734375 C 20.144531 -30.734375 23.398438 -29.488281 25.953125 -27 L 25.953125 -29.859375 L 36.265625 -29.859375 L 36.265625 0 L 26.078125 0 L 26.078125 -3.375 L 25.953125 -3.375 C 23.398438 -0.539062 20.144531 0.875 16.1875 0.875 C 11.875 0.875 8.320312 -0.644531 5.53125 -3.6875 Z M 14.28125 -19.953125 C 12.945312 -18.640625 12.28125 -16.953125 12.28125 -14.890625 C 12.28125 -12.835938 12.921875 -11.160156 14.203125 -9.859375 C 15.484375 -8.566406 17.171875 -7.921875 19.265625 -7.921875 C 21.285156 -7.921875 22.941406 -8.578125 24.234375 -9.890625 C 25.535156 -11.210938 26.1875 -12.882812 26.1875 -14.90625 C 26.1875 -16.957031 25.515625 -18.640625 24.171875 -19.953125 C 22.835938 -21.273438 21.203125 -21.9375 19.265625 -21.9375 C 17.285156 -21.9375 15.625 -21.273438 14.28125 -19.953125 Z M 14.28125 -19.953125 "/></g></g></g><g fill="#00ffff" fill-opacity="1"><g transform="translate(192.654247, 228.281133)"><g><path d="M 5.234375 -29.859375 L 5.234375 -40.96875 L 15.546875 -40.96875 L 15.546875 -29.859375 L 21.828125 -29.859375 L 21.828125 -22 L 15.546875 -22 L 15.546875 -12.515625 C 15.546875 -9.753906 16.320312 -8.375 17.875 -8.375 C 18.257812 -8.375 18.664062 -8.453125 19.09375 -8.609375 C 19.519531 -8.765625 19.847656 -8.921875 20.078125 -9.078125 L 20.421875 -9.3125 L 22.984375 -0.984375 C 20.773438 0.253906 18.253906 0.875 15.421875 0.875 C 13.484375 0.875 11.816406 0.535156 10.421875 -0.140625 C 9.023438 -0.828125 7.96875 -1.738281 7.25 -2.875 C 6.53125 -4.019531 6.015625 -5.222656 5.703125 -6.484375 C 5.390625 -7.742188 5.234375 -9.09375 5.234375 -10.53125 L 5.234375 -22 L 0.9375 -22 L 0.9375 -29.859375 Z M 5.234375 -29.859375 "/></g></g></g><g fill="#00ffff" fill-opacity="1"><g transform="translate(213.259218, 228.281133)"><g><path d="M 3.5 0 L 3.5 -50.0625 L 13.796875 -50.0625 L 13.796875 -26.71875 L 13.90625 -26.71875 C 16.582031 -29.394531 19.4375 -30.734375 22.46875 -30.734375 C 23.9375 -30.734375 25.398438 -30.535156 26.859375 -30.140625 C 28.316406 -29.753906 29.710938 -29.15625 31.046875 -28.34375 C 32.390625 -27.53125 33.476562 -26.375 34.3125 -24.875 C 35.144531 -23.382812 35.5625 -21.648438 35.5625 -19.671875 L 35.5625 0 L 25.265625 0 L 25.265625 -16.875 C 25.265625 -18.425781 24.769531 -19.785156 23.78125 -20.953125 C 22.789062 -22.117188 21.5 -22.703125 19.90625 -22.703125 C 18.351562 -22.703125 16.945312 -22.097656 15.6875 -20.890625 C 14.425781 -19.691406 13.796875 -18.351562 13.796875 -16.875 L 13.796875 0 Z M 3.5 0 "/></g></g></g><g fill="#00ffff" fill-opacity="1"><g transform="translate(249.347244, 228.281133)"><g><path d="M 33.703125 -13.5 L 12.046875 -13.5 C 12.046875 -11.40625 12.722656 -9.851562 14.078125 -8.84375 C 15.441406 -7.832031 16.921875 -7.328125 18.515625 -7.328125 C 20.179688 -7.328125 21.5 -7.550781 22.46875 -8 C 23.4375 -8.445312 24.539062 -9.332031 25.78125 -10.65625 L 33.234375 -6.921875 C 30.128906 -1.722656 24.96875 0.875 17.75 0.875 C 13.25 0.875 9.390625 -0.664062 6.171875 -3.75 C 2.953125 -6.832031 1.34375 -10.546875 1.34375 -14.890625 C 1.34375 -19.242188 2.953125 -22.972656 6.171875 -26.078125 C 9.390625 -29.179688 13.25 -30.734375 17.75 -30.734375 C 22.488281 -30.734375 26.34375 -29.363281 29.3125 -26.625 C 32.28125 -23.894531 33.765625 -19.988281 33.765625 -14.90625 C 33.765625 -14.207031 33.742188 -13.738281 33.703125 -13.5 Z M 12.34375 -19.203125 L 23.6875 -19.203125 C 23.457031 -20.753906 22.847656 -21.945312 21.859375 -22.78125 C 20.867188 -23.613281 19.597656 -24.03125 18.046875 -24.03125 C 16.335938 -24.03125 14.976562 -23.582031 13.96875 -22.6875 C 12.957031 -21.800781 12.414062 -20.640625 12.34375 -19.203125 Z M 12.34375 -19.203125 "/></g></g></g><g fill="#00ffff" fill-opacity="1"><g transform="translate(282.059263, 228.281133)"><g><path d="M 3.5 0 L 3.5 -29.859375 L 13.796875 -29.859375 L 13.796875 -25.546875 L 13.90625 -25.546875 C 13.988281 -25.703125 14.113281 -25.894531 14.28125 -26.125 C 14.457031 -26.363281 14.835938 -26.773438 15.421875 -27.359375 C 16.003906 -27.941406 16.625 -28.460938 17.28125 -28.921875 C 17.945312 -29.390625 18.800781 -29.804688 19.84375 -30.171875 C 20.894531 -30.546875 21.960938 -30.734375 23.046875 -30.734375 C 24.171875 -30.734375 25.273438 -30.578125 26.359375 -30.265625 C 27.453125 -29.953125 28.25 -29.640625 28.75 -29.328125 L 29.5625 -28.875 L 25.265625 -20.140625 C 23.984375 -21.222656 22.195312 -21.765625 19.90625 -21.765625 C 18.664062 -21.765625 17.597656 -21.492188 16.703125 -20.953125 C 15.804688 -20.410156 15.175781 -19.75 14.8125 -18.96875 C 14.445312 -18.195312 14.1875 -17.539062 14.03125 -17 C 13.875 -16.457031 13.796875 -16.03125 13.796875 -15.71875 L 13.796875 0 Z M 3.5 0 "/></g></g></g><g fill="#000000" fill-opacity="1"><g transform="translate(61.821515, 229.499985)"><g><path d="M 40.328125 0 L 32.65625 -26.953125 L 24.96875 0 L 12.8125 0 L -0.875 -48.015625 L 11.296875 -48.015625 L 19.5 -15.078125 L 19.796875 -15.078125 L 28.515625 -48.015625 L 36.78125 -48.015625 L 45.515625 -15.078125 L 45.8125 -15.078125 L 54.015625 -48.015625 L 66.125 -48.015625 L 52.4375 0 Z M 40.328125 0 "/></g></g></g><g fill="#000000" fill-opacity="1"><g transform="translate(124.684759, 229.499985)"><g><path d="M 33.703125 -13.5 L 12.046875 -13.5 C 12.046875 -11.40625 12.722656 -9.851562 14.078125 -8.84375 C 15.441406 -7.832031 16.921875 -7.328125 18.515625 -7.328125 C 20.179688 -7.328125 21.5 -7.550781 22.46875 -8 C 23.4375 -8.445312 24.539062 -9.332031 25.78125 -10.65625 L 33.234375 -6.921875 C 30.128906 -1.722656 24.96875 0.875 17.75 0.875 C 13.25 0.875 9.390625 -0.664062 6.171875 -3.75 C 2.953125 -6.832031 1.34375 -10.546875 1.34375 -14.890625 C 1.34375 -19.242188 2.953125 -22.972656 6.171875 -26.078125 C 9.390625 -29.179688 13.25 -30.734375 17.75 -30.734375 C 22.488281 -30.734375 26.34375 -29.363281 29.3125 -26.625 C 32.28125 -23.894531 33.765625 -19.988281 33.765625 -14.90625 C 33.765625 -14.207031 33.742188 -13.738281 33.703125 -13.5 Z M 12.34375 -19.203125 L 23.6875 -19.203125 C 23.457031 -20.753906 22.847656 -21.945312 21.859375 -22.78125 C 20.867188 -23.613281 19.597656 -24.03125 18.046875 -24.03125 C 16.335938 -24.03125 14.976562 -23.582031 13.96875 -22.6875 C 12.957031 -21.800781 12.414062 -20.640625 12.34375 -19.203125 Z M 12.34375 -19.203125 "/></g></g></g><g fill="#000000" fill-opacity="1"><g transform="translate(157.396784, 229.499985)"><g><path d="M 5.53125 -3.6875 C 2.738281 -6.738281 1.34375 -10.472656 1.34375 -14.890625 C 1.34375 -19.316406 2.738281 -23.0625 5.53125 -26.125 C 8.320312 -29.195312 11.875 -30.734375 16.1875 -30.734375 C 20.144531 -30.734375 23.398438 -29.488281 25.953125 -27 L 25.953125 -29.859375 L 36.265625 -29.859375 L 36.265625 0 L 26.078125 0 L 26.078125 -3.375 L 25.953125 -3.375 C 23.398438 -0.539062 20.144531 0.875 16.1875 0.875 C 11.875 0.875 8.320312 -0.644531 5.53125 -3.6875 Z M 14.28125 -19.953125 C 12.945312 -18.640625 12.28125 -16.953125 12.28125 -14.890625 C 12.28125 -12.835938 12.921875 -11.160156 14.203125 -9.859375 C 15.484375 -8.566406 17.171875 -7.921875 19.265625 -7.921875 C 21.285156 -7.921875 22.941406 -8.578125 24.234375 -9.890625 C 25.535156 -11.210938 26.1875 -12.882812 26.1875 -14.90625 C 26.1875 -16.957031 25.515625 -18.640625 24.171875 -19.953125 C 22.835938 -21.273438 21.203125 -21.9375 19.265625 -21.9375 C 17.285156 -21.9375 15.625 -21.273438 14.28125 -19.953125 Z M 14.28125 -19.953125 "/></g></g></g><g fill="#000000" fill-opacity="1"><g transform="translate(194.765368, 229.499985)"><g><path d="M 5.234375 -29.859375 L 5.234375 -40.96875 L 15.546875 -40.96875 L 15.546875 -29.859375 L 21.828125 -29.859375 L 21.828125 -22 L 15.546875 -22 L 15.546875 -12.515625 C 15.546875 -9.753906 16.320312 -8.375 17.875 -8.375 C 18.257812 -8.375 18.664062 -8.453125 19.09375 -8.609375 C 19.519531 -8.765625 19.847656 -8.921875 20.078125 -9.078125 L 20.421875 -9.3125 L 22.984375 -0.984375 C 20.773438 0.253906 18.253906 0.875 15.421875 0.875 C 13.484375 0.875 11.816406 0.535156 10.421875 -0.140625 C 9.023438 -0.828125 7.96875 -1.738281 7.25 -2.875 C 6.53125 -4.019531 6.015625 -5.222656 5.703125 -6.484375 C 5.390625 -7.742188 5.234375 -9.09375 5.234375 -10.53125 L 5.234375 -22 L 0.9375 -22 L 0.9375 -29.859375 Z M 5.234375 -29.859375 "/></g></g></g><g fill="#000000" fill-opacity="1"><g transform="translate(215.37034, 229.499985)"><g><path d="M 3.5 0 L 3.5 -50.0625 L 13.796875 -50.0625 L 13.796875 -26.71875 L 13.90625 -26.71875 C 16.582031 -29.394531 19.4375 -30.734375 22.46875 -30.734375 C 23.9375 -30.734375 25.398438 -30.535156 26.859375 -30.140625 C 28.316406 -29.753906 29.710938 -29.15625 31.046875 -28.34375 C 32.390625 -27.53125 33.476562 -26.375 34.3125 -24.875 C 35.144531 -23.382812 35.5625 -21.648438 35.5625 -19.671875 L 35.5625 0 L 25.265625 0 L 25.265625 -16.875 C 25.265625 -18.425781 24.769531 -19.785156 23.78125 -20.953125 C 22.789062 -22.117188 21.5 -22.703125 19.90625 -22.703125 C 18.351562 -22.703125 16.945312 -22.097656 15.6875 -20.890625 C 14.425781 -19.691406 13.796875 -18.351562 13.796875 -16.875 L 13.796875 0 Z M 3.5 0 "/></g></g></g><g fill="#000000" fill-opacity="1"><g transform="translate(251.458366, 229.499985)"><g><path d="M 33.703125 -13.5 L 12.046875 -13.5 C 12.046875 -11.40625 12.722656 -9.851562 14.078125 -8.84375 C 15.441406 -7.832031 16.921875 -7.328125 18.515625 -7.328125 C 20.179688 -7.328125 21.5 -7.550781 22.46875 -8 C 23.4375 -8.445312 24.539062 -9.332031 25.78125 -10.65625 L 33.234375 -6.921875 C 30.128906 -1.722656 24.96875 0.875 17.75 0.875 C 13.25 0.875 9.390625 -0.664062 6.171875 -3.75 C 2.953125 -6.832031 1.34375 -10.546875 1.34375 -14.890625 C 1.34375 -19.242188 2.953125 -22.972656 6.171875 -26.078125 C 9.390625 -29.179688 13.25 -30.734375 17.75 -30.734375 C 22.488281 -30.734375 26.34375 -29.363281 29.3125 -26.625 C 32.28125 -23.894531 33.765625 -19.988281 33.765625 -14.90625 C 33.765625 -14.207031 33.742188 -13.738281 33.703125 -13.5 Z M 12.34375 -19.203125 L 23.6875 -19.203125 C 23.457031 -20.753906 22.847656 -21.945312 21.859375 -22.78125 C 20.867188 -23.613281 19.597656 -24.03125 18.046875 -24.03125 C 16.335938 -24.03125 14.976562 -23.582031 13.96875 -22.6875 C 12.957031 -21.800781 12.414062 -20.640625 12.34375 -19.203125 Z M 12.34375 -19.203125 "/></g></g></g><g fill="#000000" fill-opacity="1"><g transform="translate(284.170384, 229.499985)"><g><path d="M 3.5 0 L 3.5 -29.859375 L 13.796875 -29.859375 L 13.796875 -25.546875 L 13.90625 -25.546875 C 13.988281 -25.703125 14.113281 -25.894531 14.28125 -26.125 C 14.457031 -26.363281 14.835938 -26.773438 15.421875 -27.359375 C 16.003906 -27.941406 16.625 -28.460938 17.28125 -28.921875 C 17.945312 -29.390625 18.800781 -29.804688 19.84375 -30.171875 C 20.894531 -30.546875 21.960938 -30.734375 23.046875 -30.734375 C 24.171875 -30.734375 25.273438 -30.578125 26.359375 -30.265625 C 27.453125 -29.953125 28.25 -29.640625 28.75 -29.328125 L 29.5625 -28.875 L 25.265625 -20.140625 C 23.984375 -21.222656 22.195312 -21.765625 19.90625 -21.765625 C 18.664062 -21.765625 17.597656 -21.492188 16.703125 -20.953125 C 15.804688 -20.410156 15.175781 -19.75 14.8125 -18.96875 C 14.445312 -18.195312 14.1875 -17.539062 14.03125 -17 C 13.875 -16.457031 13.796875 -16.03125 13.796875 -15.71875 L 13.796875 0 Z M 3.5 0 "/></g></g></g></svg>