<svg xmlns="http://www.w3.org/2000/svg" xmlns:xlink="http://www.w3.org/1999/xlink" width="500" zoomAndPan="magnify" viewBox="0 0 375 374.999991" height="500" preserveAspectRatio="xMidYMid meet" version="1.0"><defs><g/><clipPath id="edd01d1681"><path d="M 187.5 0 C 83.945312 0 0 83.945312 0 187.5 C 0 291.054688 83.945312 375 187.5 375 C 291.054688 375 375 291.054688 375 187.5 C 375 83.945312 291.054688 0 187.5 0 Z M 187.5 0 " clip-rule="nonzero"/></clipPath></defs><g clip-path="url(#edd01d1681)"><rect x="-37.5" width="450" fill="#f1efe7" y="-37.499999" height="449.999989" fill-opacity="1"/></g><g fill="#ff00ff" fill-opacity="1"><g transform="translate(101.405739, 168.024006)"><g><path d="M 0.59375 -48.984375 L 0.59375 -61.234375 L 43.640625 -61.234375 L 43.640625 -48.984375 L 29.09375 -48.984375 L 29.09375 0 L 15.140625 0 L 15.140625 -48.984375 Z M 0.59375 -48.984375 "/></g></g></g><g fill="#ff00ff" fill-opacity="1"><g transform="translate(142.588036, 168.024006)"><g><path d="M 16.84375 -38.078125 L 16.84375 -19.96875 C 16.84375 -16.207031 17.410156 -13.535156 18.546875 -11.953125 C 19.691406 -10.367188 21.625 -9.578125 24.34375 -9.578125 C 27.0625 -9.578125 28.988281 -10.367188 30.125 -11.953125 C 31.269531 -13.535156 31.84375 -16.207031 31.84375 -19.96875 L 31.84375 -38.078125 L 44.984375 -38.078125 L 44.984375 -16.78125 C 44.984375 -10.445312 43.335938 -5.878906 40.046875 -3.078125 C 36.753906 -0.285156 31.519531 1.109375 24.34375 1.109375 C 17.164062 1.109375 11.929688 -0.285156 8.640625 -3.078125 C 5.359375 -5.878906 3.71875 -10.445312 3.71875 -16.78125 L 3.71875 -38.078125 Z M 16.84375 -38.078125 "/></g></g></g><g fill="#ff00ff" fill-opacity="1"><g transform="translate(188.222531, 168.024006)"><g><path d="M 4.453125 0 L 4.453125 -38.078125 L 17.59375 -38.078125 L 17.59375 -34.0625 L 17.734375 -34.0625 C 21.148438 -37.476562 24.789062 -39.1875 28.65625 -39.1875 C 30.53125 -39.1875 32.394531 -38.9375 34.25 -38.4375 C 36.101562 -37.945312 37.882812 -37.179688 39.59375 -36.140625 C 41.300781 -35.109375 42.6875 -33.640625 43.75 -31.734375 C 44.8125 -29.828125 45.34375 -27.613281 45.34375 -25.09375 L 45.34375 0 L 32.21875 0 L 32.21875 -21.53125 C 32.21875 -23.507812 31.582031 -25.238281 30.3125 -26.71875 C 29.050781 -28.207031 27.410156 -28.953125 25.390625 -28.953125 C 23.410156 -28.953125 21.613281 -28.179688 20 -26.640625 C 18.394531 -25.109375 17.59375 -23.40625 17.59375 -21.53125 L 17.59375 0 Z M 4.453125 0 "/></g></g></g><g fill="#ff00ff" fill-opacity="1"><g transform="translate(234.228034, 168.024006)"><g><path d="M 42.96875 -17.21875 L 15.359375 -17.21875 C 15.359375 -14.550781 16.222656 -12.570312 17.953125 -11.28125 C 19.691406 -10 21.578125 -9.359375 23.609375 -9.359375 C 25.734375 -9.359375 27.410156 -9.640625 28.640625 -10.203125 C 29.878906 -10.773438 31.289062 -11.898438 32.875 -13.578125 L 42.375 -8.828125 C 38.414062 -2.203125 31.835938 1.109375 22.640625 1.109375 C 16.898438 1.109375 11.972656 -0.851562 7.859375 -4.78125 C 3.753906 -8.71875 1.703125 -13.457031 1.703125 -19 C 1.703125 -24.539062 3.753906 -29.289062 7.859375 -33.25 C 11.972656 -37.207031 16.898438 -39.1875 22.640625 -39.1875 C 28.671875 -39.1875 33.578125 -37.441406 37.359375 -33.953125 C 41.148438 -30.460938 43.046875 -25.476562 43.046875 -19 C 43.046875 -18.113281 43.019531 -17.519531 42.96875 -17.21875 Z M 15.734375 -24.5 L 30.203125 -24.5 C 29.910156 -26.476562 29.132812 -28 27.875 -29.0625 C 26.613281 -30.125 24.992188 -30.65625 23.015625 -30.65625 C 20.835938 -30.65625 19.101562 -30.082031 17.8125 -28.9375 C 16.53125 -27.800781 15.835938 -26.320312 15.734375 -24.5 Z M 15.734375 -24.5 "/></g></g></g><g fill="#00ffff" fill-opacity="1"><g transform="translate(96.023042, 164.916311)"><g><path d="M 0.59375 -48.984375 L 0.59375 -61.234375 L 43.640625 -61.234375 L 43.640625 -48.984375 L 29.09375 -48.984375 L 29.09375 0 L 15.140625 0 L 15.140625 -48.984375 Z M 0.59375 -48.984375 "/></g></g></g><g fill="#00ffff" fill-opacity="1"><g transform="translate(137.205339, 164.916311)"><g><path d="M 16.84375 -38.078125 L 16.84375 -19.96875 C 16.84375 -16.207031 17.410156 -13.535156 18.546875 -11.953125 C 19.691406 -10.367188 21.625 -9.578125 24.34375 -9.578125 C 27.0625 -9.578125 28.988281 -10.367188 30.125 -11.953125 C 31.269531 -13.535156 31.84375 -16.207031 31.84375 -19.96875 L 31.84375 -38.078125 L 44.984375 -38.078125 L 44.984375 -16.78125 C 44.984375 -10.445312 43.335938 -5.878906 40.046875 -3.078125 C 36.753906 -0.285156 31.519531 1.109375 24.34375 1.109375 C 17.164062 1.109375 11.929688 -0.285156 8.640625 -3.078125 C 5.359375 -5.878906 3.71875 -10.445312 3.71875 -16.78125 L 3.71875 -38.078125 Z M 16.84375 -38.078125 "/></g></g></g><g fill="#00ffff" fill-opacity="1"><g transform="translate(182.839834, 164.916311)"><g><path d="M 4.453125 0 L 4.453125 -38.078125 L 17.59375 -38.078125 L 17.59375 -34.0625 L 17.734375 -34.0625 C 21.148438 -37.476562 24.789062 -39.1875 28.65625 -39.1875 C 30.53125 -39.1875 32.394531 -38.9375 34.25 -38.4375 C 36.101562 -37.945312 37.882812 -37.179688 39.59375 -36.140625 C 41.300781 -35.109375 42.6875 -33.640625 43.75 -31.734375 C 44.8125 -29.828125 45.34375 -27.613281 45.34375 -25.09375 L 45.34375 0 L 32.21875 0 L 32.21875 -21.53125 C 32.21875 -23.507812 31.582031 -25.238281 30.3125 -26.71875 C 29.050781 -28.207031 27.410156 -28.953125 25.390625 -28.953125 C 23.410156 -28.953125 21.613281 -28.179688 20 -26.640625 C 18.394531 -25.109375 17.59375 -23.40625 17.59375 -21.53125 L 17.59375 0 Z M 4.453125 0 "/></g></g></g><g fill="#00ffff" fill-opacity="1"><g transform="translate(228.845337, 164.916311)"><g><path d="M 42.96875 -17.21875 L 15.359375 -17.21875 C 15.359375 -14.550781 16.222656 -12.570312 17.953125 -11.28125 C 19.691406 -10 21.578125 -9.359375 23.609375 -9.359375 C 25.734375 -9.359375 27.410156 -9.640625 28.640625 -10.203125 C 29.878906 -10.773438 31.289062 -11.898438 32.875 -13.578125 L 42.375 -8.828125 C 38.414062 -2.203125 31.835938 1.109375 22.640625 1.109375 C 16.898438 1.109375 11.972656 -0.851562 7.859375 -4.78125 C 3.753906 -8.71875 1.703125 -13.457031 1.703125 -19 C 1.703125 -24.539062 3.753906 -29.289062 7.859375 -33.25 C 11.972656 -37.207031 16.898438 -39.1875 22.640625 -39.1875 C 28.671875 -39.1875 33.578125 -37.441406 37.359375 -33.953125 C 41.148438 -30.460938 43.046875 -25.476562 43.046875 -19 C 43.046875 -18.113281 43.019531 -17.519531 42.96875 -17.21875 Z M 15.734375 -24.5 L 30.203125 -24.5 C 29.910156 -26.476562 29.132812 -28 27.875 -29.0625 C 26.613281 -30.125 24.992188 -30.65625 23.015625 -30.65625 C 20.835938 -30.65625 19.101562 -30.082031 17.8125 -28.9375 C 16.53125 -27.800781 15.835938 -26.320312 15.734375 -24.5 Z M 15.734375 -24.5 "/></g></g></g><g fill="#5200ff" fill-opacity="1"><g transform="translate(98.71439, 166.470157)"><g><path d="M 0.59375 -48.984375 L 0.59375 -61.234375 L 43.640625 -61.234375 L 43.640625 -48.984375 L 29.09375 -48.984375 L 29.09375 0 L 15.140625 0 L 15.140625 -48.984375 Z M 0.59375 -48.984375 "/></g></g></g><g fill="#5200ff" fill-opacity="1"><g transform="translate(139.896687, 166.470157)"><g><path d="M 16.84375 -38.078125 L 16.84375 -19.96875 C 16.84375 -16.207031 17.410156 -13.535156 18.546875 -11.953125 C 19.691406 -10.367188 21.625 -9.578125 24.34375 -9.578125 C 27.0625 -9.578125 28.988281 -10.367188 30.125 -11.953125 C 31.269531 -13.535156 31.84375 -16.207031 31.84375 -19.96875 L 31.84375 -38.078125 L 44.984375 -38.078125 L 44.984375 -16.78125 C 44.984375 -10.445312 43.335938 -5.878906 40.046875 -3.078125 C 36.753906 -0.285156 31.519531 1.109375 24.34375 1.109375 C 17.164062 1.109375 11.929688 -0.285156 8.640625 -3.078125 C 5.359375 -5.878906 3.71875 -10.445312 3.71875 -16.78125 L 3.71875 -38.078125 Z M 16.84375 -38.078125 "/></g></g></g><g fill="#5200ff" fill-opacity="1"><g transform="translate(185.531182, 166.470157)"><g><path d="M 4.453125 0 L 4.453125 -38.078125 L 17.59375 -38.078125 L 17.59375 -34.0625 L 17.734375 -34.0625 C 21.148438 -37.476562 24.789062 -39.1875 28.65625 -39.1875 C 30.53125 -39.1875 32.394531 -38.9375 34.25 -38.4375 C 36.101562 -37.945312 37.882812 -37.179688 39.59375 -36.140625 C 41.300781 -35.109375 42.6875 -33.640625 43.75 -31.734375 C 44.8125 -29.828125 45.34375 -27.613281 45.34375 -25.09375 L 45.34375 0 L 32.21875 0 L 32.21875 -21.53125 C 32.21875 -23.507812 31.582031 -25.238281 30.3125 -26.71875 C 29.050781 -28.207031 27.410156 -28.953125 25.390625 -28.953125 C 23.410156 -28.953125 21.613281 -28.179688 20 -26.640625 C 18.394531 -25.109375 17.59375 -23.40625 17.59375 -21.53125 L 17.59375 0 Z M 4.453125 0 "/></g></g></g><g fill="#5200ff" fill-opacity="1"><g transform="translate(231.536685, 166.470157)"><g><path d="M 42.96875 -17.21875 L 15.359375 -17.21875 C 15.359375 -14.550781 16.222656 -12.570312 17.953125 -11.28125 C 19.691406 -10 21.578125 -9.359375 23.609375 -9.359375 C 25.734375 -9.359375 27.410156 -9.640625 28.640625 -10.203125 C 29.878906 -10.773438 31.289062 -11.898438 32.875 -13.578125 L 42.375 -8.828125 C 38.414062 -2.203125 31.835938 1.109375 22.640625 1.109375 C 16.898438 1.109375 11.972656 -0.851562 7.859375 -4.78125 C 3.753906 -8.71875 1.703125 -13.457031 1.703125 -19 C 1.703125 -24.539062 3.753906 -29.289062 7.859375 -33.25 C 11.972656 -37.207031 16.898438 -39.1875 22.640625 -39.1875 C 28.671875 -39.1875 33.578125 -37.441406 37.359375 -33.953125 C 41.148438 -30.460938 43.046875 -25.476562 43.046875 -19 C 43.046875 -18.113281 43.019531 -17.519531 42.96875 -17.21875 Z M 15.734375 -24.5 L 30.203125 -24.5 C 29.910156 -26.476562 29.132812 -28 27.875 -29.0625 C 26.613281 -30.125 24.992188 -30.65625 23.015625 -30.65625 C 20.835938 -30.65625 19.101562 -30.082031 17.8125 -28.9375 C 16.53125 -27.800781 15.835938 -26.320312 15.734375 -24.5 Z M 15.734375 -24.5 "/></g></g></g><g fill="#ff00ff" fill-opacity="1"><g transform="translate(29.979962, 237.774001)"><g><path d="M 51.4375 0 L 41.640625 -34.359375 L 31.84375 0 L 16.328125 0 L -1.109375 -61.234375 L 14.40625 -61.234375 L 24.859375 -19.21875 L 25.234375 -19.21875 L 36.375 -61.234375 L 46.90625 -61.234375 L 58.046875 -19.21875 L 58.40625 -19.21875 L 68.875 -61.234375 L 84.3125 -61.234375 L 66.875 0 Z M 51.4375 0 "/></g></g></g><g fill="#ff00ff" fill-opacity="1"><g transform="translate(110.118904, 237.774001)"><g><path d="M 42.96875 -17.21875 L 15.359375 -17.21875 C 15.359375 -14.550781 16.222656 -12.570312 17.953125 -11.28125 C 19.691406 -10 21.578125 -9.359375 23.609375 -9.359375 C 25.734375 -9.359375 27.410156 -9.640625 28.640625 -10.203125 C 29.878906 -10.773438 31.289062 -11.898438 32.875 -13.578125 L 42.375 -8.828125 C 38.414062 -2.203125 31.835938 1.109375 22.640625 1.109375 C 16.898438 1.109375 11.972656 -0.851562 7.859375 -4.78125 C 3.753906 -8.71875 1.703125 -13.457031 1.703125 -19 C 1.703125 -24.539062 3.753906 -29.289062 7.859375 -33.25 C 11.972656 -37.207031 16.898438 -39.1875 22.640625 -39.1875 C 28.671875 -39.1875 33.578125 -37.441406 37.359375 -33.953125 C 41.148438 -30.460938 43.046875 -25.476562 43.046875 -19 C 43.046875 -18.113281 43.019531 -17.519531 42.96875 -17.21875 Z M 15.734375 -24.5 L 30.203125 -24.5 C 29.910156 -26.476562 29.132812 -28 27.875 -29.0625 C 26.613281 -30.125 24.992188 -30.65625 23.015625 -30.65625 C 20.835938 -30.65625 19.101562 -30.082031 17.8125 -28.9375 C 16.53125 -27.800781 15.835938 -26.320312 15.734375 -24.5 Z M 15.734375 -24.5 "/></g></g></g><g fill="#ff00ff" fill-opacity="1"><g transform="translate(151.820622, 237.774001)"><g><path d="M 7.046875 -4.71875 C 3.484375 -8.601562 1.703125 -13.363281 1.703125 -19 C 1.703125 -24.644531 3.484375 -29.421875 7.046875 -33.328125 C 10.609375 -37.234375 15.140625 -39.1875 20.640625 -39.1875 C 25.679688 -39.1875 29.835938 -37.601562 33.109375 -34.4375 L 33.109375 -38.078125 L 46.234375 -38.078125 L 46.234375 0 L 33.25 0 L 33.25 -4.3125 L 33.109375 -4.3125 C 29.835938 -0.695312 25.679688 1.109375 20.640625 1.109375 C 15.140625 1.109375 10.609375 -0.832031 7.046875 -4.71875 Z M 18.21875 -25.453125 C 16.507812 -23.773438 15.65625 -21.625 15.65625 -19 C 15.65625 -16.375 16.472656 -14.234375 18.109375 -12.578125 C 19.742188 -10.921875 21.894531 -10.09375 24.5625 -10.09375 C 27.132812 -10.09375 29.25 -10.929688 30.90625 -12.609375 C 32.570312 -14.296875 33.40625 -16.425781 33.40625 -19 C 33.40625 -21.625 32.550781 -23.773438 30.84375 -25.453125 C 29.132812 -27.140625 27.039062 -27.984375 24.5625 -27.984375 C 22.039062 -27.984375 19.925781 -27.140625 18.21875 -25.453125 Z M 18.21875 -25.453125 "/></g></g></g><g fill="#ff00ff" fill-opacity="1"><g transform="translate(199.458596, 237.774001)"><g><path d="M 6.6875 -38.078125 L 6.6875 -52.25 L 19.8125 -52.25 L 19.8125 -38.078125 L 27.828125 -38.078125 L 27.828125 -28.0625 L 19.8125 -28.0625 L 19.8125 -15.953125 C 19.8125 -12.441406 20.800781 -10.6875 22.78125 -10.6875 C 23.28125 -10.6875 23.800781 -10.785156 24.34375 -10.984375 C 24.882812 -11.179688 25.304688 -11.378906 25.609375 -11.578125 L 26.046875 -11.875 L 29.3125 -1.265625 C 26.5 0.316406 23.285156 1.109375 19.671875 1.109375 C 17.191406 1.109375 15.0625 0.675781 13.28125 -0.1875 C 11.5 -1.050781 10.148438 -2.210938 9.234375 -3.671875 C 8.328125 -5.128906 7.675781 -6.660156 7.28125 -8.265625 C 6.882812 -9.878906 6.6875 -11.601562 6.6875 -13.4375 L 6.6875 -28.0625 L 1.1875 -28.0625 L 1.1875 -38.078125 Z M 6.6875 -38.078125 "/></g></g></g><g fill="#ff00ff" fill-opacity="1"><g transform="translate(225.726081, 237.774001)"><g><path d="M 4.453125 0 L 4.453125 -63.828125 L 17.59375 -63.828125 L 17.59375 -34.0625 L 17.734375 -34.0625 C 21.148438 -37.476562 24.789062 -39.1875 28.65625 -39.1875 C 30.53125 -39.1875 32.394531 -38.9375 34.25 -38.4375 C 36.101562 -37.945312 37.882812 -37.179688 39.59375 -36.140625 C 41.300781 -35.109375 42.6875 -33.640625 43.75 -31.734375 C 44.8125 -29.828125 45.34375 -27.613281 45.34375 -25.09375 L 45.34375 0 L 32.21875 0 L 32.21875 -21.53125 C 32.21875 -23.507812 31.582031 -25.238281 30.3125 -26.71875 C 29.050781 -28.207031 27.410156 -28.953125 25.390625 -28.953125 C 23.410156 -28.953125 21.613281 -28.179688 20 -26.640625 C 18.394531 -25.109375 17.59375 -23.40625 17.59375 -21.53125 L 17.59375 0 Z M 4.453125 0 "/></g></g></g><g fill="#ff00ff" fill-opacity="1"><g transform="translate(271.731579, 237.774001)"><g><path d="M 42.96875 -17.21875 L 15.359375 -17.21875 C 15.359375 -14.550781 16.222656 -12.570312 17.953125 -11.28125 C 19.691406 -10 21.578125 -9.359375 23.609375 -9.359375 C 25.734375 -9.359375 27.410156 -9.640625 28.640625 -10.203125 C 29.878906 -10.773438 31.289062 -11.898438 32.875 -13.578125 L 42.375 -8.828125 C 38.414062 -2.203125 31.835938 1.109375 22.640625 1.109375 C 16.898438 1.109375 11.972656 -0.851562 7.859375 -4.78125 C 3.753906 -8.71875 1.703125 -13.457031 1.703125 -19 C 1.703125 -24.539062 3.753906 -29.289062 7.859375 -33.25 C 11.972656 -37.207031 16.898438 -39.1875 22.640625 -39.1875 C 28.671875 -39.1875 33.578125 -37.441406 37.359375 -33.953125 C 41.148438 -30.460938 43.046875 -25.476562 43.046875 -19 C 43.046875 -18.113281 43.019531 -17.519531 42.96875 -17.21875 Z M 15.734375 -24.5 L 30.203125 -24.5 C 29.910156 -26.476562 29.132812 -28 27.875 -29.0625 C 26.613281 -30.125 24.992188 -30.65625 23.015625 -30.65625 C 20.835938 -30.65625 19.101562 -30.082031 17.8125 -28.9375 C 16.53125 -27.800781 15.835938 -26.320312 15.734375 -24.5 Z M 15.734375 -24.5 "/></g></g></g><g fill="#ff00ff" fill-opacity="1"><g transform="translate(313.433297, 237.774001)"><g><path d="M 4.453125 0 L 4.453125 -38.078125 L 17.59375 -38.078125 L 17.59375 -32.578125 L 17.734375 -32.578125 C 17.835938 -32.773438 18 -33.019531 18.21875 -33.3125 C 18.445312 -33.613281 18.929688 -34.132812 19.671875 -34.875 C 20.410156 -35.625 21.203125 -36.296875 22.046875 -36.890625 C 22.890625 -37.484375 23.976562 -38.015625 25.3125 -38.484375 C 26.644531 -38.953125 28.003906 -39.1875 29.390625 -39.1875 C 30.828125 -39.1875 32.238281 -38.988281 33.625 -38.59375 C 35.007812 -38.195312 36.023438 -37.800781 36.671875 -37.40625 L 37.703125 -36.8125 L 32.21875 -25.6875 C 30.582031 -27.070312 28.304688 -27.765625 25.390625 -27.765625 C 23.804688 -27.765625 22.441406 -27.414062 21.296875 -26.71875 C 20.160156 -26.03125 19.359375 -25.191406 18.890625 -24.203125 C 18.421875 -23.210938 18.085938 -22.367188 17.890625 -21.671875 C 17.691406 -20.984375 17.59375 -20.441406 17.59375 -20.046875 L 17.59375 0 Z M 4.453125 0 "/></g></g></g><g fill="#00ffff" fill-opacity="1"><g transform="translate(24.597265, 234.666306)"><g><path d="M 51.4375 0 L 41.640625 -34.359375 L 31.84375 0 L 16.328125 0 L -1.109375 -61.234375 L 14.40625 -61.234375 L 24.859375 -19.21875 L 25.234375 -19.21875 L 36.375 -61.234375 L 46.90625 -61.234375 L 58.046875 -19.21875 L 58.40625 -19.21875 L 68.875 -61.234375 L 84.3125 -61.234375 L 66.875 0 Z M 51.4375 0 "/></g></g></g><g fill="#00ffff" fill-opacity="1"><g transform="translate(104.736207, 234.666306)"><g><path d="M 42.96875 -17.21875 L 15.359375 -17.21875 C 15.359375 -14.550781 16.222656 -12.570312 17.953125 -11.28125 C 19.691406 -10 21.578125 -9.359375 23.609375 -9.359375 C 25.734375 -9.359375 27.410156 -9.640625 28.640625 -10.203125 C 29.878906 -10.773438 31.289062 -11.898438 32.875 -13.578125 L 42.375 -8.828125 C 38.414062 -2.203125 31.835938 1.109375 22.640625 1.109375 C 16.898438 1.109375 11.972656 -0.851562 7.859375 -4.78125 C 3.753906 -8.71875 1.703125 -13.457031 1.703125 -19 C 1.703125 -24.539062 3.753906 -29.289062 7.859375 -33.25 C 11.972656 -37.207031 16.898438 -39.1875 22.640625 -39.1875 C 28.671875 -39.1875 33.578125 -37.441406 37.359375 -33.953125 C 41.148438 -30.460938 43.046875 -25.476562 43.046875 -19 C 43.046875 -18.113281 43.019531 -17.519531 42.96875 -17.21875 Z M 15.734375 -24.5 L 30.203125 -24.5 C 29.910156 -26.476562 29.132812 -28 27.875 -29.0625 C 26.613281 -30.125 24.992188 -30.65625 23.015625 -30.65625 C 20.835938 -30.65625 19.101562 -30.082031 17.8125 -28.9375 C 16.53125 -27.800781 15.835938 -26.320312 15.734375 -24.5 Z M 15.734375 -24.5 "/></g></g></g><g fill="#00ffff" fill-opacity="1"><g transform="translate(146.437925, 234.666306)"><g><path d="M 7.046875 -4.71875 C 3.484375 -8.601562 1.703125 -13.363281 1.703125 -19 C 1.703125 -24.644531 3.484375 -29.421875 7.046875 -33.328125 C 10.609375 -37.234375 15.140625 -39.1875 20.640625 -39.1875 C 25.679688 -39.1875 29.835938 -37.601562 33.109375 -34.4375 L 33.109375 -38.078125 L 46.234375 -38.078125 L 46.234375 0 L 33.25 0 L 33.25 -4.3125 L 33.109375 -4.3125 C 29.835938 -0.695312 25.679688 1.109375 20.640625 1.109375 C 15.140625 1.109375 10.609375 -0.832031 7.046875 -4.71875 Z M 18.21875 -25.453125 C 16.507812 -23.773438 15.65625 -21.625 15.65625 -19 C 15.65625 -16.375 16.472656 -14.234375 18.109375 -12.578125 C 19.742188 -10.921875 21.894531 -10.09375 24.5625 -10.09375 C 27.132812 -10.09375 29.25 -10.929688 30.90625 -12.609375 C 32.570312 -14.296875 33.40625 -16.425781 33.40625 -19 C 33.40625 -21.625 32.550781 -23.773438 30.84375 -25.453125 C 29.132812 -27.140625 27.039062 -27.984375 24.5625 -27.984375 C 22.039062 -27.984375 19.925781 -27.140625 18.21875 -25.453125 Z M 18.21875 -25.453125 "/></g></g></g><g fill="#00ffff" fill-opacity="1"><g transform="translate(194.0759, 234.666306)"><g><path d="M 6.6875 -38.078125 L 6.6875 -52.25 L 19.8125 -52.25 L 19.8125 -38.078125 L 27.828125 -38.078125 L 27.828125 -28.0625 L 19.8125 -28.0625 L 19.8125 -15.953125 C 19.8125 -12.441406 20.800781 -10.6875 22.78125 -10.6875 C 23.28125 -10.6875 23.800781 -10.785156 24.34375 -10.984375 C 24.882812 -11.179688 25.304688 -11.378906 25.609375 -11.578125 L 26.046875 -11.875 L 29.3125 -1.265625 C 26.5 0.316406 23.285156 1.109375 19.671875 1.109375 C 17.191406 1.109375 15.0625 0.675781 13.28125 -0.1875 C 11.5 -1.050781 10.148438 -2.210938 9.234375 -3.671875 C 8.328125 -5.128906 7.675781 -6.660156 7.28125 -8.265625 C 6.882812 -9.878906 6.6875 -11.601562 6.6875 -13.4375 L 6.6875 -28.0625 L 1.1875 -28.0625 L 1.1875 -38.078125 Z M 6.6875 -38.078125 "/></g></g></g><g fill="#00ffff" fill-opacity="1"><g transform="translate(220.343384, 234.666306)"><g><path d="M 4.453125 0 L 4.453125 -63.828125 L 17.59375 -63.828125 L 17.59375 -34.0625 L 17.734375 -34.0625 C 21.148438 -37.476562 24.789062 -39.1875 28.65625 -39.1875 C 30.53125 -39.1875 32.394531 -38.9375 34.25 -38.4375 C 36.101562 -37.945312 37.882812 -37.179688 39.59375 -36.140625 C 41.300781 -35.109375 42.6875 -33.640625 43.75 -31.734375 C 44.8125 -29.828125 45.34375 -27.613281 45.34375 -25.09375 L 45.34375 0 L 32.21875 0 L 32.21875 -21.53125 C 32.21875 -23.507812 31.582031 -25.238281 30.3125 -26.71875 C 29.050781 -28.207031 27.410156 -28.953125 25.390625 -28.953125 C 23.410156 -28.953125 21.613281 -28.179688 20 -26.640625 C 18.394531 -25.109375 17.59375 -23.40625 17.59375 -21.53125 L 17.59375 0 Z M 4.453125 0 "/></g></g></g><g fill="#00ffff" fill-opacity="1"><g transform="translate(266.348882, 234.666306)"><g><path d="M 42.96875 -17.21875 L 15.359375 -17.21875 C 15.359375 -14.550781 16.222656 -12.570312 17.953125 -11.28125 C 19.691406 -10 21.578125 -9.359375 23.609375 -9.359375 C 25.734375 -9.359375 27.410156 -9.640625 28.640625 -10.203125 C 29.878906 -10.773438 31.289062 -11.898438 32.875 -13.578125 L 42.375 -8.828125 C 38.414062 -2.203125 31.835938 1.109375 22.640625 1.109375 C 16.898438 1.109375 11.972656 -0.851562 7.859375 -4.78125 C 3.753906 -8.71875 1.703125 -13.457031 1.703125 -19 C 1.703125 -24.539062 3.753906 -29.289062 7.859375 -33.25 C 11.972656 -37.207031 16.898438 -39.1875 22.640625 -39.1875 C 28.671875 -39.1875 33.578125 -37.441406 37.359375 -33.953125 C 41.148438 -30.460938 43.046875 -25.476562 43.046875 -19 C 43.046875 -18.113281 43.019531 -17.519531 42.96875 -17.21875 Z M 15.734375 -24.5 L 30.203125 -24.5 C 29.910156 -26.476562 29.132812 -28 27.875 -29.0625 C 26.613281 -30.125 24.992188 -30.65625 23.015625 -30.65625 C 20.835938 -30.65625 19.101562 -30.082031 17.8125 -28.9375 C 16.53125 -27.800781 15.835938 -26.320312 15.734375 -24.5 Z M 15.734375 -24.5 "/></g></g></g><g fill="#00ffff" fill-opacity="1"><g transform="translate(308.050601, 234.666306)"><g><path d="M 4.453125 0 L 4.453125 -38.078125 L 17.59375 -38.078125 L 17.59375 -32.578125 L 17.734375 -32.578125 C 17.835938 -32.773438 18 -33.019531 18.21875 -33.3125 C 18.445312 -33.613281 18.929688 -34.132812 19.671875 -34.875 C 20.410156 -35.625 21.203125 -36.296875 22.046875 -36.890625 C 22.890625 -37.484375 23.976562 -38.015625 25.3125 -38.484375 C 26.644531 -38.953125 28.003906 -39.1875 29.390625 -39.1875 C 30.828125 -39.1875 32.238281 -38.988281 33.625 -38.59375 C 35.007812 -38.195312 36.023438 -37.800781 36.671875 -37.40625 L 37.703125 -36.8125 L 32.21875 -25.6875 C 30.582031 -27.070312 28.304688 -27.765625 25.390625 -27.765625 C 23.804688 -27.765625 22.441406 -27.414062 21.296875 -26.71875 C 20.160156 -26.03125 19.359375 -25.191406 18.890625 -24.203125 C 18.421875 -23.210938 18.085938 -22.367188 17.890625 -21.671875 C 17.691406 -20.984375 17.59375 -20.441406 17.59375 -20.046875 L 17.59375 0 Z M 4.453125 0 "/></g></g></g><g fill="#000000" fill-opacity="1"><g transform="translate(27.288614, 236.220152)"><g><path d="M 51.4375 0 L 41.640625 -34.359375 L 31.84375 0 L 16.328125 0 L -1.109375 -61.234375 L 14.40625 -61.234375 L 24.859375 -19.21875 L 25.234375 -19.21875 L 36.375 -61.234375 L 46.90625 -61.234375 L 58.046875 -19.21875 L 58.40625 -19.21875 L 68.875 -61.234375 L 84.3125 -61.234375 L 66.875 0 Z M 51.4375 0 "/></g></g></g><g fill="#000000" fill-opacity="1"><g transform="translate(107.427555, 236.220152)"><g><path d="M 42.96875 -17.21875 L 15.359375 -17.21875 C 15.359375 -14.550781 16.222656 -12.570312 17.953125 -11.28125 C 19.691406 -10 21.578125 -9.359375 23.609375 -9.359375 C 25.734375 -9.359375 27.410156 -9.640625 28.640625 -10.203125 C 29.878906 -10.773438 31.289062 -11.898438 32.875 -13.578125 L 42.375 -8.828125 C 38.414062 -2.203125 31.835938 1.109375 22.640625 1.109375 C 16.898438 1.109375 11.972656 -0.851562 7.859375 -4.78125 C 3.753906 -8.71875 1.703125 -13.457031 1.703125 -19 C 1.703125 -24.539062 3.753906 -29.289062 7.859375 -33.25 C 11.972656 -37.207031 16.898438 -39.1875 22.640625 -39.1875 C 28.671875 -39.1875 33.578125 -37.441406 37.359375 -33.953125 C 41.148438 -30.460938 43.046875 -25.476562 43.046875 -19 C 43.046875 -18.113281 43.019531 -17.519531 42.96875 -17.21875 Z M 15.734375 -24.5 L 30.203125 -24.5 C 29.910156 -26.476562 29.132812 -28 27.875 -29.0625 C 26.613281 -30.125 24.992188 -30.65625 23.015625 -30.65625 C 20.835938 -30.65625 19.101562 -30.082031 17.8125 -28.9375 C 16.53125 -27.800781 15.835938 -26.320312 15.734375 -24.5 Z M 15.734375 -24.5 "/></g></g></g><g fill="#000000" fill-opacity="1"><g transform="translate(149.129274, 236.220152)"><g><path d="M 7.046875 -4.71875 C 3.484375 -8.601562 1.703125 -13.363281 1.703125 -19 C 1.703125 -24.644531 3.484375 -29.421875 7.046875 -33.328125 C 10.609375 -37.234375 15.140625 -39.1875 20.640625 -39.1875 C 25.679688 -39.1875 29.835938 -37.601562 33.109375 -34.4375 L 33.109375 -38.078125 L 46.234375 -38.078125 L 46.234375 0 L 33.25 0 L 33.25 -4.3125 L 33.109375 -4.3125 C 29.835938 -0.695312 25.679688 1.109375 20.640625 1.109375 C 15.140625 1.109375 10.609375 -0.832031 7.046875 -4.71875 Z M 18.21875 -25.453125 C 16.507812 -23.773438 15.65625 -21.625 15.65625 -19 C 15.65625 -16.375 16.472656 -14.234375 18.109375 -12.578125 C 19.742188 -10.921875 21.894531 -10.09375 24.5625 -10.09375 C 27.132812 -10.09375 29.25 -10.929688 30.90625 -12.609375 C 32.570312 -14.296875 33.40625 -16.425781 33.40625 -19 C 33.40625 -21.625 32.550781 -23.773438 30.84375 -25.453125 C 29.132812 -27.140625 27.039062 -27.984375 24.5625 -27.984375 C 22.039062 -27.984375 19.925781 -27.140625 18.21875 -25.453125 Z M 18.21875 -25.453125 "/></g></g></g><g fill="#000000" fill-opacity="1"><g transform="translate(196.767248, 236.220152)"><g><path d="M 6.6875 -38.078125 L 6.6875 -52.25 L 19.8125 -52.25 L 19.8125 -38.078125 L 27.828125 -38.078125 L 27.828125 -28.0625 L 19.8125 -28.0625 L 19.8125 -15.953125 C 19.8125 -12.441406 20.800781 -10.6875 22.78125 -10.6875 C 23.28125 -10.6875 23.800781 -10.785156 24.34375 -10.984375 C 24.882812 -11.179688 25.304688 -11.378906 25.609375 -11.578125 L 26.046875 -11.875 L 29.3125 -1.265625 C 26.5 0.316406 23.285156 1.109375 19.671875 1.109375 C 17.191406 1.109375 15.0625 0.675781 13.28125 -0.1875 C 11.5 -1.050781 10.148438 -2.210938 9.234375 -3.671875 C 8.328125 -5.128906 7.675781 -6.660156 7.28125 -8.265625 C 6.882812 -9.878906 6.6875 -11.601562 6.6875 -13.4375 L 6.6875 -28.0625 L 1.1875 -28.0625 L 1.1875 -38.078125 Z M 6.6875 -38.078125 "/></g></g></g><g fill="#000000" fill-opacity="1"><g transform="translate(223.034732, 236.220152)"><g><path d="M 4.453125 0 L 4.453125 -63.828125 L 17.59375 -63.828125 L 17.59375 -34.0625 L 17.734375 -34.0625 C 21.148438 -37.476562 24.789062 -39.1875 28.65625 -39.1875 C 30.53125 -39.1875 32.394531 -38.9375 34.25 -38.4375 C 36.101562 -37.945312 37.882812 -37.179688 39.59375 -36.140625 C 41.300781 -35.109375 42.6875 -33.640625 43.75 -31.734375 C 44.8125 -29.828125 45.34375 -27.613281 45.34375 -25.09375 L 45.34375 0 L 32.21875 0 L 32.21875 -21.53125 C 32.21875 -23.507812 31.582031 -25.238281 30.3125 -26.71875 C 29.050781 -28.207031 27.410156 -28.953125 25.390625 -28.953125 C 23.410156 -28.953125 21.613281 -28.179688 20 -26.640625 C 18.394531 -25.109375 17.59375 -23.40625 17.59375 -21.53125 L 17.59375 0 Z M 4.453125 0 "/></g></g></g><g fill="#000000" fill-opacity="1"><g transform="translate(269.04023, 236.220152)"><g><path d="M 42.96875 -17.21875 L 15.359375 -17.21875 C 15.359375 -14.550781 16.222656 -12.570312 17.953125 -11.28125 C 19.691406 -10 21.578125 -9.359375 23.609375 -9.359375 C 25.734375 -9.359375 27.410156 -9.640625 28.640625 -10.203125 C 29.878906 -10.773438 31.289062 -11.898438 32.875 -13.578125 L 42.375 -8.828125 C 38.414062 -2.203125 31.835938 1.109375 22.640625 1.109375 C 16.898438 1.109375 11.972656 -0.851562 7.859375 -4.78125 C 3.753906 -8.71875 1.703125 -13.457031 1.703125 -19 C 1.703125 -24.539062 3.753906 -29.289062 7.859375 -33.25 C 11.972656 -37.207031 16.898438 -39.1875 22.640625 -39.1875 C 28.671875 -39.1875 33.578125 -37.441406 37.359375 -33.953125 C 41.148438 -30.460938 43.046875 -25.476562 43.046875 -19 C 43.046875 -18.113281 43.019531 -17.519531 42.96875 -17.21875 Z M 15.734375 -24.5 L 30.203125 -24.5 C 29.910156 -26.476562 29.132812 -28 27.875 -29.0625 C 26.613281 -30.125 24.992188 -30.65625 23.015625 -30.65625 C 20.835938 -30.65625 19.101562 -30.082031 17.8125 -28.9375 C 16.53125 -27.800781 15.835938 -26.320312 15.734375 -24.5 Z M 15.734375 -24.5 "/></g></g></g><g fill="#000000" fill-opacity="1"><g transform="translate(310.741949, 236.220152)"><g><path d="M 4.453125 0 L 4.453125 -38.078125 L 17.59375 -38.078125 L 17.59375 -32.578125 L 17.734375 -32.578125 C 17.835938 -32.773438 18 -33.019531 18.21875 -33.3125 C 18.445312 -33.613281 18.929688 -34.132812 19.671875 -34.875 C 20.410156 -35.625 21.203125 -36.296875 22.046875 -36.890625 C 22.890625 -37.484375 23.976562 -38.015625 25.3125 -38.484375 C 26.644531 -38.953125 28.003906 -39.1875 29.390625 -39.1875 C 30.828125 -39.1875 32.238281 -38.988281 33.625 -38.59375 C 35.007812 -38.195312 36.023438 -37.800781 36.671875 -37.40625 L 37.703125 -36.8125 L 32.21875 -25.6875 C 30.582031 -27.070312 28.304688 -27.765625 25.390625 -27.765625 C 23.804688 -27.765625 22.441406 -27.414062 21.296875 -26.71875 C 20.160156 -26.03125 19.359375 -25.191406 18.890625 -24.203125 C 18.421875 -23.210938 18.085938 -22.367188 17.890625 -21.671875 C 17.691406 -20.984375 17.59375 -20.441406 17.59375 -20.046875 L 17.59375 0 Z M 4.453125 0 "/></g></g></g></svg>